Coordinates
version=1
nRows=15
nColumns=42
inDegrees=yes

Units are S.I. units (second, meters, Newtons, ...)
If the header above contains a line with 'inDegrees', this indicates whether rotational values are in degrees (yes) or radians (no).

endheader
time	pelvis_tilt	pelvis_list	pelvis_rotation	pelvis_tx	pelvis_ty	pelvis_tz	hip_flexion_r	hip_adduction_r	hip_rotation_r	knee_angle_r	knee_adduction_r	knee_angle_r_beta	ankle_angle_r	subtalar_angle_r	mtp_angle_r	hip_flexion_l	hip_adduction_l	hip_rotation_l	knee_angle_l	knee_adduction_l	knee_angle_l_beta	ankle_angle_l	subtalar_angle_l	mtp_angle_l	lumbar_extension	lumbar_bending	lumbar_rotation	arm_flex_r	arm_add_r	arm_rot_r	elbow_flex_r	pro_sup_r	wrist_flex_r	wrist_dev_r	arm_flex_l	arm_add_l	arm_rot_l	elbow_flex_l	pro_sup_l	wrist_flex_l	wrist_dev_l
      1.39000000	     -4.74366028	      0.41395806	      1.82103172	      0.01950841	      0.93134405	      0.20834015	     33.50520801	     -1.06923535	    -20.77990405	     13.14554140	     -2.06475500	      0.22943298	      1.71589284	      2.22805802	     -7.54900547	     -7.95013738	      3.49901915	     -7.45436759	     19.60916497	     -2.21964893	      0.34224449	     18.21143106	     -2.99925749	     -7.54900547	     -5.14544124	      1.32851601	     -3.41448311	     -8.47890255	     -7.51769575	     -9.67792910	     27.13987586	     90.00000001	      0.00000000	      0.00000000	     17.75928017	    -12.83451608	     14.87109043	     43.16571799	     90.00000001	      0.00000000	      0.00000000
      1.40000000	     -4.63147196	     -0.06773508	      1.88275773	      0.03480995	      0.93069956	      0.20869222	     33.51258273	     -0.42015445	    -20.50818491	     14.58696046	     -2.52470362	      0.25459049	      1.04709481	      1.90688635	     -7.54865259	     -8.31689027	      2.78334516	     -6.97648680	     21.02968126	     -2.17301504	      0.36703718	     17.48871568	     -3.14464792	     -7.54865259	     -5.27427673	      2.08501987	     -3.43182789	     -8.35067951	     -7.63664818	     -9.83280127	     26.97030443	     90.00000001	      0.00000000	      0.00000000	     17.92154668	    -12.63302098	     14.77697464	     43.30099877	     90.00000001	      0.00000000	      0.00000000
      1.41000000	     -4.47064140	     -0.63025033	      1.90313352	      0.05022579	      0.93053829	      0.20902757	     33.47015184	      0.33053200	    -19.94586072	     16.21650491	     -3.00046762	      0.28303140	      0.28874517	      1.68330351	     -7.54843099	     -8.59911435	      2.04391211	     -6.45628227	     22.64122846	     -2.21872031	      0.39516398	     16.59727260	     -3.30130363	     -7.54843099	     -5.46464652	      2.96702854	     -3.43939462	     -8.15754266	     -7.84960098	     -9.96792199	     26.84578185	     90.00000001	      0.00000000	      0.00000000	     17.99376533	    -12.37573652	     14.68757789	     43.39969443	     90.00000001	      0.00000000	      0.00000000
      1.42000000	     -4.68148947	     -1.45490009	      1.92291666	      0.06551243	      0.93056040	      0.20970802	     33.70026701	      1.42527574	    -18.57929565	     17.69572804	     -3.24419919	      0.30884872	     -1.99701404	     -2.10776808	     -7.54467891	     -8.01535040	      0.91926013	     -6.30697055	     25.05644327	     -2.24505480	      0.43731743	     14.22857555	     -5.50797442	     -7.54467891	     -5.20887703	      4.12242841	     -3.45482030	     -7.59825768	     -7.64269862	    -11.70834415	     25.69603596	     90.00000001	      0.00000000	      0.00000000	     17.71586860	    -11.61664398	     12.60811628	     43.39856374	     90.00000001	      0.00000000	      0.00000000
      1.43000000	     -4.57051002	     -2.19429260	      1.75317902	      0.08105381	      0.93130677	      0.21050554	     33.56678574	      2.50124761	    -16.89823907	     19.29913023	     -3.35379023	      0.33683337	     -3.26629502	     -4.42282499	     -7.54121272	     -7.75074714	     -0.09904942	     -6.18007017	     27.46510592	     -2.18420708	      0.47935653	     11.94898980	     -6.68610604	     -7.54121272	     -5.35335840	      5.18359322	     -3.18936620	     -7.37598479	     -7.71790509	    -12.39803248	     25.43664992	     90.00000001	      0.00000000	      0.00000000	     17.60781659	    -11.13811077	     11.89559166	     43.35962454	     90.00000001	      0.00000000	      0.00000000
      1.44000000	     -4.41031733	     -2.93078515	      1.49354732	      0.09671215	      0.93250974	      0.21146732	     33.31089416	      3.62242541	    -15.01469769	     20.88232021	     -3.30669048	      0.36446524	     -4.23695459	     -6.91422036	     -7.53813734	     -7.36074705	     -1.13413847	     -6.11982132	     30.11141597	     -2.06171888	      0.52554335	      9.07154048	     -8.14838682	     -7.53813734	     -5.56194653	      6.21998807	     -2.85430585	     -7.08041760	     -7.83140781	    -12.84368739	     25.06088229	     90.00000001	      0.00000000	      0.00000000	     17.37849863	    -10.62288080	     10.94052314	     43.35851509	     90.00000001	      0.00000000	      0.00000000
      1.45000000	     -4.16292702	     -3.63516938	      1.18207539	      0.11243819	      0.93413374	      0.21258877	     32.87029494	      4.76092760	    -13.11441874	     22.36490798	     -3.17996438	      0.39034128	     -4.87425538	     -9.35004411	     -7.53552834	     -6.87206378	     -2.17365558	     -6.16726323	     32.97238513	     -1.90550075	      0.57547668	      5.74006996	     -9.69915426	     -7.53552834	     -5.87998903	      7.18760172	     -2.44247940	     -6.83122886	     -7.97323023	    -13.19668509	     24.76434592	     90.00000001	      0.00000000	      0.00000000	     17.09185075	    -10.17070210	     10.05101200	     43.35187930	     90.00000001	      0.00000000	      0.00000000
      1.46000000	     -3.92098357	     -4.26519328	      0.81720886	      0.12813512	      0.93608835	      0.21386494	     32.29078770	      5.85034265	    -11.32198383	     23.62259360	     -2.95124294	      0.41229204	     -5.20847238	    -11.72672316	     -7.53316714	     -6.20601532	     -3.19050247	     -6.22980161	     35.97185292	     -1.63800337	      0.62782727	      1.93224162	    -11.49230854	     -7.53316714	     -6.19606127	      8.01296978	     -1.95476491	     -6.52262018	     -8.04040090	    -13.50139203	     24.46971100	     90.00000001	      0.00000000	      0.00000000	     16.70199111	     -9.66465575	      9.07281529	     43.38715417	     90.00000001	      0.00000000	      0.00000000
      1.47000000	     -3.56420223	     -4.92472125	      0.54191569	      0.14388295	      0.93823758	      0.21530024	     31.54380505	      6.93154339	    -10.61720735	     24.74850910	     -3.05742647	      0.43194297	     -4.62488907	    -12.36086239	     -7.53273377	     -5.42485337	     -4.34001253	     -6.67304465	     39.15054935	     -1.59304539	      0.68330599	     -1.37829515	    -12.00598555	     -7.53273377	     -6.62660830	      8.80409691	     -1.43695595	     -6.36810019	     -8.11296304	    -13.55578202	     24.35529433	     90.00000001	      0.00000000	      0.00000000	     16.33084482	     -9.38500374	      8.82043822	     43.40921704	     90.00000001	      0.00000000	      0.00000000
      1.48000000	     -3.35141311	     -5.37606487	      0.20389342	      0.15928197	      0.94047447	      0.21671950	     30.75624338	      7.84424254	     -9.67219042	     25.53978291	     -3.06445715	      0.44575330	     -4.25238329	    -13.33694775	     -7.53210224	     -4.31876103	     -5.22234935	     -7.13171315	     42.32066739	     -1.64794809	      0.73863499	     -5.12929053	    -13.54594796	     -7.53210224	     -6.93567204	      9.32524700	     -0.93188879	     -6.08225816	     -8.12884894	    -13.65562451	     24.19666488	     90.00000001	      0.00000000	      0.00000000	     15.84776696	     -9.11036185	      8.12507817	     43.49745901	     90.00000001	      0.00000000	      0.00000000
      1.49000000	     -3.16128193	     -5.54415527	     -0.10023965	      0.17442758	      0.94292283	      0.21793683	     29.81226089	      8.41153592	     -8.67638669	     26.06042883	     -2.96139248	      0.45484029	     -3.99454157	    -14.63262379	     -7.53055056	     -3.15420773	     -5.74877538	     -6.89807778	     45.27985477	     -1.31254553	      0.79028255	     -8.51960370	    -16.07592577	     -7.53055056	     -7.22387041	      9.49180065	     -0.51264420	     -5.70975766	     -8.08339490	    -13.90954679	     23.90665590	     90.00000001	      0.00000000	      0.00000000	     15.29600369	     -8.57500979	      6.51461311	     43.61869045	     90.00000001	      0.00000000	      0.00000000
      1.50000000	     -2.96150566	     -5.83787484	     -0.25040460	      0.18944656	      0.94532740	      0.21910311	     28.77451125	      9.01236410	     -8.56941252	     26.34938845	     -3.12288886	      0.45988358	     -3.08334706	    -14.73842828	     -7.53013204	     -1.75180753	     -6.49642328	     -7.40296118	     48.31117681	     -1.58753729	      0.84318910	    -10.29548965	    -16.84337757	     -7.53013204	     -7.48323714	      9.78046369	     -0.10909266	     -5.49554414	     -8.07612534	    -13.95032550	     23.87658056	     90.00000001	      0.00000000	      0.00000000	     14.81178989	     -8.35157520	      6.13548193	     43.58226982	     90.00000001	      0.00000000	      0.00000000
      1.51000000	     -2.85220733	     -5.93780192	     -0.35489181	      0.20413737	      0.94773556	      0.22006433	     27.74041702	      9.33731041	     -8.62254045	     26.45702470	     -3.28965922	      0.46176219	     -2.16462635	    -14.60068109	     -7.52973499	     -0.12293797	     -6.98924734	     -8.06638925	     51.17523196	     -2.13242652	      0.89317629	    -11.47697995	    -17.75810158	     -7.52973499	     -7.64640804	      9.82503074	      0.23678608	     -5.23638410	     -8.04185148	    -13.98118698	     23.86209009	     90.00000001	      0.00000000	      0.00000000	     14.29518932	     -8.11583853	      5.59077738	     43.58584613	     90.00000001	      0.00000000	      0.00000000
      1.52000000	     -2.84821862	     -5.83482230	     -0.39879695	      0.21852298	      0.95005974	      0.22067719	     26.81303270	      9.34010554	     -9.02686161	     26.51758356	     -3.52633384	      0.46281914	     -1.10071770	    -13.68264622	     -7.52869830	      1.75707812	     -7.20487352	     -9.09511674	     53.85148625	     -3.12744371	      0.93988574	    -11.94561367	    -18.32767406	     -7.52869830	     -7.67364810	      9.65716621	      0.48814567	     -4.94131172	     -7.97659233	    -14.02285727	     23.81827831	     90.00000001	      0.00000000	      0.00000000	     13.74693204	     -7.69588199	      4.30793123	     43.69345881	     90.00000001	      0.00000000	      0.00000000
      1.53000000	     -2.73710971	     -5.81570402	     -0.27015836	      0.23276377	      0.95260130	      0.22114420	     25.62292173	      9.36598450	     -9.36274122	     26.29712381	     -3.65821895	      0.45897139	     -0.02861691	    -13.23131793	     -7.52820619	      3.56852107	     -7.52250978	     -9.90970535	     56.24539317	     -4.06034972	      0.98166730	    -11.24614406	    -18.73668174	     -7.52820619	     -7.82138288	      9.57845096	      0.65328273	     -4.65734911	     -7.93702186	    -14.00127085	     23.93824465	     90.00000001	      0.00000000	      0.00000000	     13.23874355	     -7.51489909	      3.84814411	     43.57469864	     90.00000001	      0.00000000	      0.00000000
